<?xml version="1.0" standalone="no"?>
<!DOCTYPE svg PUBLIC "-//W3C//DTD SVG 20010904//EN"
 "http://www.w3.org/TR/2001/REC-SVG-20010904/DTD/svg10.dtd">
<svg version="1.0" xmlns="http://www.w3.org/2000/svg"
 width="1080.000000pt" height="607.000000pt" viewBox="0 0 1080.000000 607.000000"
 preserveAspectRatio="xMidYMid meet">

<g transform="translate(0.000000,607.000000) scale(0.100000,-0.100000)"
fill="#000000" stroke="none">
<path d="M2220 3946 c-12 -32 -28 -40 -47 -25 -13 12 -20 9 -44 -21 -24 -28
-29 -43 -29 -85 1 -57 13 -89 54 -136 23 -27 35 -33 65 -33 106 3 164 104 130
227 -8 29 -21 45 -57 68 -56 35 -60 35 -72 5z"/>
<path d="M2190 3503 c-12 -16 -55 -63 -97 -105 -41 -42 -72 -82 -68 -87 3 -6
21 -11 39 -11 46 0 56 -15 56 -86 0 -60 15 -94 41 -94 5 0 9 -11 9 -24 0 -24
-13 -28 -37 -13 -9 6 -13 2 -13 -10 -1 -10 -5 -51 -9 -92 -5 -42 -5 -119 0
-180 11 -121 11 -114 4 -246 -3 -55 -6 -122 -6 -149 -1 -71 13 -79 128 -73 51
3 97 8 102 12 7 4 10 129 10 358 -1 194 -1 404 0 469 l1 116 50 7 c28 4 50 9
50 12 0 3 -30 36 -67 73 -38 37 -85 86 -107 109 -21 22 -44 41 -52 41 -7 0
-22 -12 -34 -27z m20 -443 c0 -5 -7 -10 -15 -10 -8 0 -15 5 -15 10 0 6 7 10
15 10 8 0 15 -4 15 -10z m70 -80 c0 -5 -7 -10 -16 -10 -8 0 -12 5 -9 10 3 6
10 10 16 10 5 0 9 -4 9 -10z m-130 -280 c0 -5 -4 -10 -10 -10 -5 0 -10 5 -10
10 0 6 5 10 10 10 6 0 10 -4 10 -10z"/>
<path d="M8132 2668 c-7 -7 -12 -22 -12 -34 0 -13 -5 -35 -10 -49 l-10 -26
-26 20 c-20 16 -31 18 -45 10 -10 -5 -19 -17 -19 -25 0 -23 -25 -11 -28 14 -4
26 -46 30 -77 6 -16 -12 -20 -27 -21 -97 -1 -136 16 -165 108 -182 29 -6 45
-2 71 14 43 26 54 26 62 1 6 -19 13 -20 108 -18 l102 3 3 129 c3 144 -5 169
-58 181 -16 4 -39 20 -51 36 -15 22 -28 29 -53 29 -17 0 -37 -5 -44 -12z
m-165 -150 c-3 -7 -5 -2 -5 12 0 14 2 19 5 13 2 -7 2 -19 0 -25z m124 -44 c12
-15 11 -19 -8 -31 -19 -13 -21 -19 -12 -35 9 -16 7 -24 -5 -36 -9 -9 -16 -11
-16 -5 0 12 -18 12 -38 0 -17 -11 -24 11 -20 64 3 40 6 45 33 50 48 10 52 10
66 -7z m-175 -31 c-10 -10 -19 5 -10 18 6 11 8 11 12 0 2 -7 1 -15 -2 -18z
m124 -87 c0 -3 -4 -8 -10 -11 -5 -3 -10 -1 -10 4 0 6 5 11 10 11 6 0 10 -2 10
-4z"/>
<path d="M7520 2653 c0 -10 -49 -33 -67 -33 -8 0 -16 7 -19 15 -10 25 -24 17
-24 -15 0 -23 4 -30 20 -30 27 0 28 -4 34 -149 3 -88 8 -126 18 -132 20 -13
78 -11 83 4 2 6 5 83 7 170 2 127 6 160 18 167 11 7 3 10 -27 10 -24 0 -43 -3
-43 -7z"/>
<path d="M7702 2595 c-6 -8 -19 -12 -26 -9 -9 3 -21 -5 -31 -19 -13 -21 -15
-41 -8 -128 8 -101 9 -104 37 -118 82 -39 160 -18 154 42 -2 23 1 32 12 32 37
0 15 154 -28 193 -29 25 -90 30 -110 7z"/>
</g>
</svg>
